<mxfile host="app.diagrams.net" modified="2023-07-20T08:19:28.092Z" agent="Mozilla/5.0 (Windows NT 10.0; Win64; x64) AppleWebKit/537.36 (KHTML, like Gecko) Chrome/114.0.0.0 Safari/537.36" etag="1gTATH1PyiLTke0rY_3y" version="21.6.3" type="device">
  <diagram name="Страница 1" id="AzTC9f289Ze7O7dE-0fS">
    <mxGraphModel dx="1107" dy="803" grid="1" gridSize="10" guides="1" tooltips="1" connect="1" arrows="1" fold="1" page="1" pageScale="1" pageWidth="827" pageHeight="1169" math="0" shadow="0">
      <root>
        <mxCell id="0" />
        <mxCell id="1" parent="0" />
        <mxCell id="7bhQq3ttmpZvwQBgnyPt-41" value="" style="rounded=1;whiteSpace=wrap;html=1;" vertex="1" parent="1">
          <mxGeometry x="1160" y="90" width="310" height="330" as="geometry" />
        </mxCell>
        <mxCell id="7bhQq3ttmpZvwQBgnyPt-17" style="edgeStyle=orthogonalEdgeStyle;rounded=0;orthogonalLoop=1;jettySize=auto;html=1;entryX=0.154;entryY=0.992;entryDx=0;entryDy=0;entryPerimeter=0;" edge="1" parent="1" source="7bhQq3ttmpZvwQBgnyPt-1" target="7bhQq3ttmpZvwQBgnyPt-5">
          <mxGeometry relative="1" as="geometry" />
        </mxCell>
        <mxCell id="7bhQq3ttmpZvwQBgnyPt-1" value="user" style="shape=actor;whiteSpace=wrap;html=1;" vertex="1" parent="1">
          <mxGeometry x="40" y="160" width="90" height="80" as="geometry" />
        </mxCell>
        <mxCell id="7bhQq3ttmpZvwQBgnyPt-16" style="edgeStyle=orthogonalEdgeStyle;rounded=0;orthogonalLoop=1;jettySize=auto;html=1;entryX=0.394;entryY=0.995;entryDx=0;entryDy=0;entryPerimeter=0;" edge="1" parent="1" source="7bhQq3ttmpZvwQBgnyPt-2" target="7bhQq3ttmpZvwQBgnyPt-5">
          <mxGeometry relative="1" as="geometry" />
        </mxCell>
        <mxCell id="7bhQq3ttmpZvwQBgnyPt-2" value="&lt;div style=&quot;&quot;&gt;&lt;span style=&quot;background-color: initial;&quot;&gt;&lt;font style=&quot;font-size: 10px;&quot;&gt;creator - user&lt;/font&gt;&lt;/span&gt;&lt;/div&gt;" style="shape=actor;whiteSpace=wrap;html=1;align=center;" vertex="1" parent="1">
          <mxGeometry x="40" y="270" width="90" height="90" as="geometry" />
        </mxCell>
        <mxCell id="7bhQq3ttmpZvwQBgnyPt-14" style="edgeStyle=orthogonalEdgeStyle;rounded=0;orthogonalLoop=1;jettySize=auto;html=1;entryX=0.644;entryY=0.989;entryDx=0;entryDy=0;entryPerimeter=0;" edge="1" parent="1" source="7bhQq3ttmpZvwQBgnyPt-3" target="7bhQq3ttmpZvwQBgnyPt-5">
          <mxGeometry relative="1" as="geometry" />
        </mxCell>
        <mxCell id="7bhQq3ttmpZvwQBgnyPt-3" value="creator - plugins" style="shape=actor;whiteSpace=wrap;html=1;" vertex="1" parent="1">
          <mxGeometry x="30" y="390" width="110" height="90" as="geometry" />
        </mxCell>
        <mxCell id="7bhQq3ttmpZvwQBgnyPt-24" style="edgeStyle=orthogonalEdgeStyle;rounded=0;orthogonalLoop=1;jettySize=auto;html=1;" edge="1" parent="1" source="7bhQq3ttmpZvwQBgnyPt-5" target="7bhQq3ttmpZvwQBgnyPt-21">
          <mxGeometry relative="1" as="geometry" />
        </mxCell>
        <mxCell id="7bhQq3ttmpZvwQBgnyPt-5" value="" style="rounded=1;whiteSpace=wrap;html=1;rotation=90;" vertex="1" parent="1">
          <mxGeometry x="197.5" y="232.5" width="480" height="265" as="geometry" />
        </mxCell>
        <mxCell id="7bhQq3ttmpZvwQBgnyPt-10" value="user GUI" style="rounded=0;whiteSpace=wrap;html=1;" vertex="1" parent="1">
          <mxGeometry x="380" y="160" width="120" height="60" as="geometry" />
        </mxCell>
        <mxCell id="7bhQq3ttmpZvwQBgnyPt-11" value="creator - user GUI" style="rounded=0;whiteSpace=wrap;html=1;" vertex="1" parent="1">
          <mxGeometry x="380" y="272.5" width="120" height="60" as="geometry" />
        </mxCell>
        <mxCell id="7bhQq3ttmpZvwQBgnyPt-12" value="FRONT-END" style="text;html=1;strokeColor=none;fillColor=none;align=center;verticalAlign=middle;whiteSpace=wrap;rounded=0;" vertex="1" parent="1">
          <mxGeometry x="355" y="70" width="170" height="50" as="geometry" />
        </mxCell>
        <mxCell id="7bhQq3ttmpZvwQBgnyPt-13" value="creator - plugins GUI" style="rounded=0;whiteSpace=wrap;html=1;" vertex="1" parent="1">
          <mxGeometry x="380" y="385" width="120" height="60" as="geometry" />
        </mxCell>
        <mxCell id="7bhQq3ttmpZvwQBgnyPt-20" style="edgeStyle=orthogonalEdgeStyle;rounded=0;orthogonalLoop=1;jettySize=auto;html=1;entryX=0.896;entryY=1.022;entryDx=0;entryDy=0;entryPerimeter=0;" edge="1" parent="1" source="7bhQq3ttmpZvwQBgnyPt-18" target="7bhQq3ttmpZvwQBgnyPt-5">
          <mxGeometry relative="1" as="geometry" />
        </mxCell>
        <mxCell id="7bhQq3ttmpZvwQBgnyPt-18" value="admin" style="shape=actor;whiteSpace=wrap;html=1;" vertex="1" parent="1">
          <mxGeometry x="20" y="510" width="120" height="90" as="geometry" />
        </mxCell>
        <mxCell id="7bhQq3ttmpZvwQBgnyPt-19" value="admin&amp;nbsp; GUI" style="rounded=0;whiteSpace=wrap;html=1;" vertex="1" parent="1">
          <mxGeometry x="380" y="498" width="120" height="60" as="geometry" />
        </mxCell>
        <mxCell id="7bhQq3ttmpZvwQBgnyPt-33" style="edgeStyle=orthogonalEdgeStyle;rounded=0;orthogonalLoop=1;jettySize=auto;html=1;entryX=0.5;entryY=1;entryDx=0;entryDy=0;" edge="1" parent="1" source="7bhQq3ttmpZvwQBgnyPt-21" target="7bhQq3ttmpZvwQBgnyPt-32">
          <mxGeometry relative="1" as="geometry" />
        </mxCell>
        <mxCell id="7bhQq3ttmpZvwQBgnyPt-42" style="edgeStyle=orthogonalEdgeStyle;rounded=0;orthogonalLoop=1;jettySize=auto;html=1;entryX=-0.003;entryY=0.301;entryDx=0;entryDy=0;entryPerimeter=0;" edge="1" parent="1" source="7bhQq3ttmpZvwQBgnyPt-21" target="7bhQq3ttmpZvwQBgnyPt-41">
          <mxGeometry relative="1" as="geometry" />
        </mxCell>
        <mxCell id="7bhQq3ttmpZvwQBgnyPt-21" value="" style="rounded=1;whiteSpace=wrap;html=1;rotation=90;" vertex="1" parent="1">
          <mxGeometry x="610" y="232.5" width="490" height="263" as="geometry" />
        </mxCell>
        <mxCell id="7bhQq3ttmpZvwQBgnyPt-22" value="user backend" style="rounded=0;whiteSpace=wrap;html=1;" vertex="1" parent="1">
          <mxGeometry x="790" y="220" width="120" height="60" as="geometry" />
        </mxCell>
        <mxCell id="7bhQq3ttmpZvwQBgnyPt-23" value="BACKEND" style="text;html=1;strokeColor=none;fillColor=none;align=center;verticalAlign=middle;whiteSpace=wrap;rounded=0;" vertex="1" parent="1">
          <mxGeometry x="810" y="80" width="60" height="30" as="geometry" />
        </mxCell>
        <mxCell id="7bhQq3ttmpZvwQBgnyPt-25" value="c - u (studio)&lt;br&gt;backend" style="rounded=0;whiteSpace=wrap;html=1;" vertex="1" parent="1">
          <mxGeometry x="790" y="300" width="120" height="60" as="geometry" />
        </mxCell>
        <mxCell id="7bhQq3ttmpZvwQBgnyPt-26" value="c - p (workshop)&lt;br&gt;backend" style="rounded=0;whiteSpace=wrap;html=1;" vertex="1" parent="1">
          <mxGeometry x="790" y="385" width="120" height="60" as="geometry" />
        </mxCell>
        <mxCell id="7bhQq3ttmpZvwQBgnyPt-27" value="Autorization REST API" style="rounded=0;whiteSpace=wrap;html=1;" vertex="1" parent="1">
          <mxGeometry x="790" y="140" width="120" height="60" as="geometry" />
        </mxCell>
        <mxCell id="7bhQq3ttmpZvwQBgnyPt-28" value="admin backend" style="rounded=0;whiteSpace=wrap;html=1;" vertex="1" parent="1">
          <mxGeometry x="790" y="460" width="120" height="60" as="geometry" />
        </mxCell>
        <mxCell id="7bhQq3ttmpZvwQBgnyPt-29" value="notification sender" style="rounded=0;whiteSpace=wrap;html=1;" vertex="1" parent="1">
          <mxGeometry x="790" y="530" width="120" height="60" as="geometry" />
        </mxCell>
        <mxCell id="7bhQq3ttmpZvwQBgnyPt-31" value="SQL" style="shape=cylinder3;whiteSpace=wrap;html=1;boundedLbl=1;backgroundOutline=1;size=15;" vertex="1" parent="1">
          <mxGeometry x="1190" y="120" width="60" height="80" as="geometry" />
        </mxCell>
        <mxCell id="7bhQq3ttmpZvwQBgnyPt-32" value="" style="rounded=1;whiteSpace=wrap;html=1;rotation=90;" vertex="1" parent="1">
          <mxGeometry x="1209.38" y="490.63" width="233.75" height="351" as="geometry" />
        </mxCell>
        <mxCell id="7bhQq3ttmpZvwQBgnyPt-35" value="(plugins, users, survey)" style="text;html=1;strokeColor=none;fillColor=none;align=center;verticalAlign=middle;whiteSpace=wrap;rounded=0;" vertex="1" parent="1">
          <mxGeometry x="1190" y="220" width="60" height="50" as="geometry" />
        </mxCell>
        <mxCell id="7bhQq3ttmpZvwQBgnyPt-36" value="Sessions" style="shape=cylinder3;whiteSpace=wrap;html=1;boundedLbl=1;backgroundOutline=1;size=15;" vertex="1" parent="1">
          <mxGeometry x="1328.75" y="120" width="60" height="80" as="geometry" />
        </mxCell>
        <mxCell id="7bhQq3ttmpZvwQBgnyPt-37" value="tokkens&lt;br&gt;(redis)" style="text;html=1;strokeColor=none;fillColor=none;align=center;verticalAlign=middle;whiteSpace=wrap;rounded=0;" vertex="1" parent="1">
          <mxGeometry x="1328.75" y="220" width="60" height="50" as="geometry" />
        </mxCell>
        <mxCell id="7bhQq3ttmpZvwQBgnyPt-38" value="" style="shape=note;whiteSpace=wrap;html=1;backgroundOutline=1;darkOpacity=0.05;" vertex="1" parent="1">
          <mxGeometry x="1328.75" y="280" width="61" height="70" as="geometry" />
        </mxCell>
        <mxCell id="7bhQq3ttmpZvwQBgnyPt-40" value="File storage" style="text;html=1;strokeColor=none;fillColor=none;align=center;verticalAlign=middle;whiteSpace=wrap;rounded=0;" vertex="1" parent="1">
          <mxGeometry x="1328.75" y="370" width="60" height="30" as="geometry" />
        </mxCell>
        <mxCell id="7bhQq3ttmpZvwQBgnyPt-43" value="notification serves" style="rounded=0;whiteSpace=wrap;html=1;" vertex="1" parent="1">
          <mxGeometry x="1255" y="570" width="120" height="60" as="geometry" />
        </mxCell>
        <mxCell id="7bhQq3ttmpZvwQBgnyPt-44" value="EXTERNAL SERVICE" style="text;html=1;strokeColor=none;fillColor=none;align=center;verticalAlign=middle;whiteSpace=wrap;rounded=0;" vertex="1" parent="1">
          <mxGeometry x="1255" y="468" width="121" height="62" as="geometry" />
        </mxCell>
        <mxCell id="7bhQq3ttmpZvwQBgnyPt-45" value="payment service" style="rounded=0;whiteSpace=wrap;html=1;" vertex="1" parent="1">
          <mxGeometry x="1256" y="680" width="120" height="60" as="geometry" />
        </mxCell>
        <mxCell id="7bhQq3ttmpZvwQBgnyPt-46" value="STORAGE" style="text;html=1;strokeColor=none;fillColor=none;align=center;verticalAlign=middle;whiteSpace=wrap;rounded=0;" vertex="1" parent="1">
          <mxGeometry x="1286" y="30" width="60" height="30" as="geometry" />
        </mxCell>
      </root>
    </mxGraphModel>
  </diagram>
</mxfile>
